<svg  viewBox="0 0 80 80"  xmlns="http://www.w3.org/2000/svg">
<path d="M53.5352 8.18C54.4726 9.11764 54.9992 10.3892 54.9992 11.715C54.9992 13.0408 54.4726 14.3124 53.5352 15.25L28.7852 40L53.5352 64.75C54.446 65.693 54.95 66.956 54.9386 68.267C54.9272 69.578 54.4014 70.8321 53.4743 71.7591C52.5473 72.6861 51.2932 73.212 49.9822 73.2234C48.6713 73.2348 47.4083 72.7308 46.4652 71.82L18.1802 43.535C17.2429 42.5974 16.7163 41.3258 16.7163 40C16.7163 38.6742 17.2429 37.4026 18.1802 36.465L46.4652 8.18C47.4029 7.24264 48.6744 6.71606 50.0002 6.71606C51.3261 6.71606 52.5976 7.24264 53.5352 8.18Z" />
</svg>
