<svg  viewBox="0 0 80 80"  xmlns="http://www.w3.org/2000/svg">
<path d="M26.4648 8.18C25.5274 9.11764 25.0008 10.3892 25.0008 11.715C25.0008 13.0408 25.5274 14.3124 26.4648 15.25L51.2148 40L26.4648 64.75C25.554 65.693 25.05 66.956 25.0614 68.267C25.0728 69.578 25.5986 70.8321 26.5257 71.7591C27.4527 72.6861 28.7068 73.212 30.0178 73.2234C31.3287 73.2348 32.5917 72.7308 33.5348 71.82L61.8198 43.535C62.7571 42.5974 63.2837 41.3258 63.2837 40C63.2837 38.6742 62.7571 37.4026 61.8198 36.465L33.5348 8.18C32.5971 7.24264 31.3256 6.71606 29.9998 6.71606C28.6739 6.71606 27.4024 7.24264 26.4648 8.18Z" />
</svg>
